name Walk2.mot
datacolumns 19
datarows 22
range 3.62400000 3.64500000
endheader

                time	   L_ground_force_vx	   L_ground_force_vy	   L_ground_force_vz	   L_ground_force_px	   L_ground_force_py	   L_ground_force_pz	   R_ground_force_vx	   R_ground_force_vy	   R_ground_force_vz	   R_ground_force_px	   R_ground_force_py	   R_ground_force_pz	   L_ground_torque_x	   L_ground_torque_y	   L_ground_torque_z	   R_ground_torque_x	   R_ground_torque_y	   R_ground_torque_z	
          3.62400000	         25.39047075	        974.51365365	         66.65583410	         -0.20931421	          0.00000000	         -0.04506438	          0.00293846	         -0.02580386	         -0.00188363	          0.00000249	          0.00000000	          0.00000119	          0.00000000	         -1.40910788	          0.00000000	          0.00000000	         -0.00044120	          0.00000000	
          3.62500000	         25.60517247	        975.35835519	         66.75875292	         -0.20887435	          0.00000000	         -0.04507759	          0.00276955	         -0.02361860	         -0.00155671	          0.00000559	          0.00000000	          0.00000232	          0.00000000	         -1.40253403	          0.00000000	          0.00000000	         -0.00042002	          0.00000000	
          3.62600000	         25.81709939	        976.19631350	         66.85944911	         -0.20843287	          0.00000000	         -0.04509012	          0.00257350	         -0.02113273	         -0.00119298	          0.00000895	          0.00000000	          0.00000355	          0.00000000	         -1.39573642	          0.00000000	          0.00000000	         -0.00039514	          0.00000000	
          3.62700000	         26.02640517	        977.02783808	         66.95786109	         -0.20798982	          0.00000000	         -0.04510196	          0.00234861	         -0.01832859	         -0.00079052	          0.00001260	          0.00000000	          0.00000488	          0.00000000	         -1.38873581	          0.00000000	          0.00000000	         -0.00036631	          0.00000000	
          3.62800000	         26.23325611	        977.85324263	         67.05392515	         -0.20754522	          0.00000000	         -0.04511311	          0.00209313	         -0.01518818	         -0.00034740	          0.00001653	          0.00000000	          0.00000631	          0.00000000	         -1.38155215	          0.00000000	          0.00000000	         -0.00033330	          0.00000000	
          3.62900000	         26.43783080	        978.67284495	         67.14757614	         -0.20709910	          0.00000000	         -0.04512359	          0.00180525	         -0.01169322	          0.00013833	          0.00002075	          0.00000000	          0.00000784	          0.00000000	         -1.37420447	          0.00000000	          0.00000000	         -0.00029584	          0.00000000	
          3.63000000	         26.64031952	        979.48696699	         67.23874826	         -0.20665151	          0.00000000	         -0.04513340	          0.00148317	         -0.00782520	          0.00066863	          0.00002529	          0.00000000	          0.00000949	          0.00000000	         -1.36671077	          0.00000000	          0.00000000	         -0.00025367	          0.00000000	
          3.63100000	         26.84092356	        980.29593517	         67.32737586	         -0.20620248	          0.00000000	         -0.04514255	          0.00112504	         -0.00356543	          0.00124544	          0.00003014	          0.00000000	          0.00001125	          0.00000000	         -1.35908806	          0.00000000	          0.00000000	         -0.00020654	          0.00000000	
          3.63200000	         27.03985427	        981.10008068	         67.41339427	         -0.20575207	          0.00000000	         -0.04515105	          0.00072898	          0.00110491	          0.00187071	          0.00003531	          0.00000000	          0.00001313	          0.00000000	         -1.35135242	          0.00000000	          0.00000000	         -0.00015418	          0.00000000	
          3.63300000	         27.23733232	        981.89973981	         67.49674046	         -0.20530031	          0.00000000	         -0.04515892	          0.00029310	          0.00620468	          0.00254636	          0.00004082	          0.00000000	          0.00001513	          0.00000000	         -1.34351921	          0.00000000	          0.00000000	         -0.00009632	          0.00000000	
          3.63400000	         27.43358709	        982.69525398	         67.57735356	         -0.20484727	          0.00000000	         -0.04516616	         -0.00018449	          0.01175272	          0.00327428	          0.00004668	          0.00000000	          0.00001726	          0.00000000	         -1.33560323	          0.00000000	          0.00000000	         -0.00003268	          0.00000000	
          3.63500000	         27.62885644	        983.48696980	         67.65517499	         -0.20439300	          0.00000000	         -0.04517278	         -0.00070570	          0.01776777	          0.00405631	          0.00005288	          0.00000000	          0.00001951	          0.00000000	         -1.32761901	          0.00000000	          0.00000000	          0.00003701	          0.00000000	
          3.63600000	         27.82338652	        984.27523921	         67.73014871	         -0.20393756	          0.00000000	         -0.04517882	         -0.00127242	          0.02426839	          0.00489427	          0.00005945	          0.00000000	          0.00002188	          0.00000000	         -1.31958102	          0.00000000	          0.00000000	          0.00011302	          0.00000000	
          3.63700000	         28.01743164	        985.06041961	         67.80222122	         -0.20348101	          0.00000000	         -0.04518427	         -0.00188656	          0.03127286	          0.00578988	          0.00006638	          0.00000000	          0.00002439	          0.00000000	         -1.31150385	          0.00000000	          0.00000000	          0.00019562	          0.00000000	
          3.63800000	         28.21125405	        985.84287402	         67.87134185	         -0.20302344	          0.00000000	         -0.04518915	         -0.00254997	          0.03879906	          0.00674480	          0.00007368	          0.00000000	          0.00002703	          0.00000000	         -1.30340212	          0.00000000	          0.00000000	          0.00028510	          0.00000000	
          3.63900000	         28.40512361	        986.62297099	         67.93746309	         -0.20256490	          0.00000000	         -0.04519348	         -0.00326450	          0.04686440	          0.00776060	          0.00008135	          0.00000000	          0.00002981	          0.00000000	         -1.29529039	          0.00000000	          0.00000000	          0.00038171	          0.00000000	
          3.64000000	         28.59931752	        987.40108451	         68.00054083	         -0.20210547	          0.00000000	         -0.04519726	         -0.00403194	          0.05548567	          0.00883874	          0.00008940	          0.00000000	          0.00003272	          0.00000000	         -1.28718290	          0.00000000	          0.00000000	          0.00048572	          0.00000000	
          3.64100000	         28.79411983	        988.17759386	         68.06053457	         -0.20164524	          0.00000000	         -0.04520051	         -0.00485405	          0.06467891	          0.00998057	          0.00009783	          0.00000000	          0.00003576	          0.00000000	         -1.27909335	          0.00000000	          0.00000000	          0.00059740	          0.00000000	
          3.64200000	         28.98982103	        988.95288321	         68.11740747	         -0.20118428	          0.00000000	         -0.04520324	         -0.00573250	          0.07445932	          0.01118728	          0.00010664	          0.00000000	          0.00003894	          0.00000000	         -1.27103485	          0.00000000	          0.00000000	          0.00071698	          0.00000000	
          3.64300000	         29.18671752	        989.72734074	         68.17112640	         -0.20072268	          0.00000000	         -0.04520544	         -0.00666891	          0.08484107	          0.01245993	          0.00011582	          0.00000000	          0.00004225	          0.00000000	         -1.26301980	          0.00000000	          0.00000000	          0.00084471	          0.00000000	
          3.64400000	         29.38511077	        990.50135689	         68.22166219	         -0.20026053	          0.00000000	         -0.04520714	         -0.00766480	          0.09583715	          0.01379937	          0.00012538	          0.00000000	          0.00004570	          0.00000000	         -1.25505998	          0.00000000	          0.00000000	          0.00098083	          0.00000000	
          3.64500000	         29.58530657	        991.27532211	         68.26899022	         -0.19979792	          0.00000000	         -0.04520834	         -0.00872157	          0.10745925	          0.01520630	          0.00013531	          0.00000000	          0.00004928	          0.00000000	         -1.24716669	          0.00000000	          0.00000000	          0.00112554	          0.00000000	
